<?xml version="1.0" encoding="utf-8"?>
<!-- Generator: Adobe Illustrator 23.0.3, SVG Export Plug-In . SVG Version: 6.00 Build 0)  -->
<svg version="1.1" id="Camada_1" xmlns="http://www.w3.org/2000/svg" xmlns:xlink="http://www.w3.org/1999/xlink" x="0px" y="0px"
	 viewBox="0 0 1000 1000" style="enable-background:new 0 0 1000 1000;" xml:space="preserve">
<style type="text/css">
	.st0{fill:#82817E;}
</style>
<title>eye-alt</title>
<path class="st0" d="M472.9,166.5h53.8c3.2,0.7,6.4,1.8,9.7,2c38.9,3,76.6,11.8,113,25.2C778.5,241.5,883.9,322.4,970.8,428
	c39.5,48,38.6,96.8-0.6,145.3c-53.9,66.8-117.9,122.3-190,168.5c-59.4,38-122.7,67.3-192,82.1c-20.3,4.3-41,6.8-61.5,10.1h-53.8
	c-3.2-0.7-6.5-1.8-9.8-2c-33.5-2.8-66.3-9.7-98.1-20.5C227.9,765,117.8,680.5,26.5,569.9C11.8,552.1,2.3,531.4,0.3,508
	c-2.7-33.5,11.9-60.7,32.4-85.5C87.6,356.2,152.1,300.6,225,254.9c60.7-38.1,125.3-67,196.1-80.5
	C438.3,171.1,455.6,169.1,472.9,166.5L472.9,166.5z M291.4,500.3c0,114.3,93.5,208.1,207.8,208.3c114.6,0.3,208.9-93.9,208.9-208.5
	c0-114.3-93.7-208-208-208.2C385.1,291.7,291.4,385.3,291.4,500.3L291.4,500.3z M539,382.3c-41.5,34.7-50.6,71.8-26.2,107.1
	c24.6,35.6,61.6,39.7,111.1,12.4c5.1,42.6-30.7,95.8-77.3,114.6c-52.6,21.2-113.4,4.1-147-41.2c-34.2-46.1-33.4-108.6,2-152.6
	C435.2,380.8,495.5,363.1,539,382.3L539,382.3z"/>
</svg>
